<?xml version="1.0" encoding="UTF-8" standalone="no"?>
<!-- Created with Inkscape (https://www.inkscape.org/) -->
<!-- ClipArt by Arvin61r58 (https://openclipart.org/user-detail/Arvin61r58) -->
<svg
   xmlns:dc="http://purl.org/dc/elements/1.1/"
   xmlns:cc="http://creativecommons.org/ns#"
   xmlns:rdf="http://www.w3.org/1999/02/22-rdf-syntax-ns#"
   xmlns:svg="http://www.w3.org/2000/svg"
   xmlns="http://www.w3.org/2000/svg"
   id="svg2178"
   version="1.1"
   viewBox="0 0 161.39581 17.561267"
   height="66.373291"
   width="609.99994">
  <title
     id="title4079">Decorative Header 7</title>
  <defs
     id="defs2172" />
  <metadata
     id="metadata2175">
    <rdf:RDF>
      <cc:Work
         rdf:about="">
        <dc:format>image/svg+xml</dc:format>
        <dc:type
           rdf:resource="http://purl.org/dc/dcmitype/StillImage" />
        <dc:title>Decorative Header 7</dc:title>
        <dc:description>Decorative page divider, footer, header, etc.</dc:description>
        <dc:subject>
          <rdf:Bag>
            <rdf:li>divider</rdf:li>
            <rdf:li>DTP</rdf:li>
            <rdf:li>flourish</rdf:li>
            <rdf:li>footer</rdf:li>
            <rdf:li>header</rdf:li>
            <rdf:li>page</rdf:li>
            <rdf:li>rule</rdf:li>
          </rdf:Bag>
        </dc:subject>
        <dc:creator>
          <cc:Agent>
            <dc:title>Arvin61r58</dc:title>
          </cc:Agent>
        </dc:creator>
        <dc:publisher>
          <cc:Agent>
            <dc:title>Openclipart.org</dc:title>
          </cc:Agent>
        </dc:publisher>
        <dc:identifier>https://openclipart.org/</dc:identifier>
        <dc:source>https://openclipart.org/user-detail/Arvin61r58</dc:source>
        <cc:license
           rdf:resource="http://creativecommons.org/publicdomain/zero/1.0/" />
      </cc:Work>
      <cc:License
         rdf:about="http://creativecommons.org/publicdomain/zero/1.0/">
        <cc:permits
           rdf:resource="http://creativecommons.org/ns#Reproduction" />
        <cc:permits
           rdf:resource="http://creativecommons.org/ns#Distribution" />
        <cc:permits
           rdf:resource="http://creativecommons.org/ns#DerivativeWorks" />
      </cc:License>
    </rdf:RDF>
  </metadata>
  <g
     transform="translate(-24.302091,-139.71936)"
     id="layer1">
    <g
       id="g2170"
       transform="translate(1.5957555,-83.386573)">
      <title
         id="title2923">Decorative Header 7  --  by Arvin61r58</title>
      <path
         style="fill:#000000;stroke-width:0.53315961"
         d="m 103.4027,225.68979 -1.92701,1.47331 c -1.05981,0.81039 -2.191216,1.48631 -2.514566,1.4998 -0.32336,0.0144 0.29012,0.54887 1.363216,1.18752 1.0731,0.63865 2.09934,1.43255 2.28099,1.7637 0.18166,0.33118 0.54055,0.60211 0.79737,0.60211 5.3e-4,0 0.001,1e-5 0.002,0 5.3e-4,1e-5 10e-4,0 0.002,0 0.25682,0 0.61571,-0.27093 0.79736,-0.60211 0.18163,-0.33115 1.20787,-1.12505 2.28097,-1.7637 1.0731,-0.63865 1.68658,-1.17303 1.36322,-1.18752 -0.32335,-0.0134 -1.45476,-0.68941 -2.51457,-1.4998 l -1.92708,-1.47331 -0.002,0.001 z m -79.194952,0.40852 c -0.414307,-0.003 -0.114926,0.652 0.977199,1.80807 2.733673,2.89374 4.135767,3.11572 19.829745,3.12464 8.582081,0.006 15.040044,0.24974 15.503406,0.58714 v 5.8e-4 c 0.436788,0.31807 1.523077,0.58267 2.413799,0.58714 1.757818,0.01 3.92125,-1.40335 3.270592,-2.1365 -0.221382,-0.24937 -6.676388,-0.38448 -14.344306,-0.30019 -14.552061,0.15991 -16.489387,-0.10756 -18.26602,-2.52139 -0.640551,-0.87035 -0.840281,-0.8807 -1.838643,-0.0928 -1.550579,1.22375 -4.00296,1.10115 -6.046126,-0.3025 -0.745263,-0.51201 -1.25106,-0.75192 -1.499646,-0.75423 z m 158.393002,0 c -0.24859,0.002 -0.75439,0.24222 -1.49965,0.75422 -2.04316,1.40365 -4.49553,1.52625 -6.04612,0.3025 -0.99836,-0.78793 -1.19809,-0.77758 -1.83864,0.0928 -1.77664,2.41388 -3.71396,2.6813 -18.26602,2.52138 -7.66792,-0.0843 -14.12293,0.0508 -14.34431,0.3002 -0.65066,0.73314 1.51278,2.14641 3.27059,2.13649 0.89072,-0.004 1.97701,-0.26907 2.4138,-0.58714 v -5.8e-4 c 0.46333,-0.33739 6.92132,-0.58178 15.50341,-0.58714 15.69397,-0.009 17.09606,-0.2309 19.82974,-3.12464 1.09212,-1.15607 1.3915,-1.81186 0.9772,-1.80807 z m -110.498894,0.78246 c -2.330019,-0.014 -4.839132,1.74703 -4.598157,4.00217 0.08888,0.83179 0.835112,2.07588 1.658292,2.76454 1.893784,1.58436 7.505962,1.66312 12.444169,0.17459 1.843469,-0.55569 4.973014,-1.01064 6.954594,-1.01064 2.97636,0 4.09684,0.30219 6.443,1.73778 3.33559,2.04103 4.76774,2.21184 6.861576,0.81818 0.72726,-0.48406 1.13276,-0.72602 1.53892,-0.72542 0.40616,-6.2e-4 0.81166,0.24136 1.53892,0.72542 2.09384,1.39366 3.52599,1.22285 6.86158,-0.81818 2.34616,-1.43559 3.46664,-1.73778 6.443,-1.73778 1.98158,0 5.11113,0.45495 6.95459,1.01064 4.93821,1.48853 10.55038,1.40977 12.44417,-0.17459 0.82318,-0.68866 1.56941,-1.93275 1.65829,-2.76454 0.24097,-2.25514 -2.26814,-4.01618 -4.59816,-4.00217 -0.91174,0.006 -1.79583,0.28293 -2.47736,0.90864 -1.01308,0.93012 -1.01281,0.93745 0.031,0.51222 2.47241,-1.00716 3.75315,-0.92535 5.1697,0.33016 1.65762,1.6066 1.6595,2.566 0.0532,4.13643 -1.70896,1.51468 -5.59898,1.63142 -11.04633,0.3313 -2.03823,-0.48648 -5.79884,-0.88444 -8.35656,-0.88444 -3.91094,0 -5.06593,0.23693 -7.26259,1.49116 -3.00469,1.71565 -4.15089,1.84171 -5.58983,0.61537 -0.94963,-0.8093 -0.95572,-0.87728 -0.0801,-0.89481 0.52119,-0.0112 1.8815,-0.55549 3.02307,-1.21172 1.86378,-1.07138 3.1205,-1.19328 12.31498,-1.19328 6.62219,0 10.44109,0.22773 10.81067,0.64418 0.35803,0.40341 1.48736,0.489 3.0241,0.22932 2.36164,-0.39903 3.43351,-1.14588 2.7497,-1.91639 -0.17922,-0.20198 -6.32374,-0.2972 -13.65439,-0.21145 -12.91313,0.15106 -13.4072,0.20116 -15.85739,1.60005 -1.59498,0.91072 -2.87465,1.36586 -4.15425,1.36557 -1.27961,2.9e-4 -2.55928,-0.45485 -4.154256,-1.36557 -2.45018,-1.39889 -2.94426,-1.44899 -15.857388,-1.60005 -7.330652,-0.0858 -13.475174,0.01 -13.654426,0.21145 -0.683816,0.77051 0.388054,1.51736 2.749695,1.91639 1.536737,0.25968 2.666072,0.17409 3.024098,-0.22932 0.369586,-0.41645 4.188484,-0.64418 10.810681,-0.64418 9.19447,0 10.45119,0.1219 12.31498,1.19328 1.14157,0.65623 2.501866,1.20046 3.023056,1.21172 0.87562,0.0175 0.86953,0.0856 -0.0801,0.89481 -1.43894,1.22634 -2.585136,1.10028 -5.589816,-0.61537 -2.19667,-1.25423 -3.35165,-1.49116 -7.26259,-1.49116 -2.55772,0 -6.318338,0.39796 -8.356572,0.88444 -5.447347,1.30012 -9.337365,1.18338 -11.046325,-0.3313 -1.606275,-1.57043 -1.604396,-2.52983 0.05323,-4.13643 1.41655,-1.25551 2.697284,-1.33732 5.169696,-0.33016 1.043819,0.42523 1.044083,0.4179 0.03101,-0.51222 -0.681527,-0.62571 -1.565613,-0.90315 -2.477362,-0.90864 z"
         id="path1665" />
      <g
         id="g1759"
         transform="translate(-0.04784557,-0.26458333)">
        <path
           style="fill:#000000;fill-rule:evenodd;stroke:none;stroke-width:0.26458332"
           id="path1732"
           d="m 71.395394,235.42536 c 0.66507,-0.0212 0.99752,0.93935 0.3045,1.2874 -1.11294,0.55894 -2.476179,-0.10749 -3.422709,-0.80881 -0.94493,-0.7038 -1.55025,-1.76858 -1.6885,-2.87093 v 0 c -0.10572,-0.84922 0.063,-1.70778 0.45358,-2.42503 -0.27871,0.76766 -0.3038,1.60501 -0.0925,2.3534 v 0 c 0.2729,0.96989 0.9525,1.79273 1.78467,2.23135 v 0 c 0.83057,0.44109 1.787679,0.26054 2.660999,0.23262 z" />
        <path
           d="m 135.50879,235.42536 c -0.66507,-0.0212 -0.99752,0.93935 -0.3045,1.2874 1.11294,0.55894 2.47618,-0.10749 3.42271,-0.80881 0.94493,-0.7038 1.55025,-1.76858 1.6885,-2.87093 v 0 c 0.10572,-0.84922 -0.063,-1.70778 -0.45358,-2.42503 0.27871,0.76766 0.3038,1.60501 0.0925,2.3534 v 0 c -0.2729,0.96989 -0.9525,1.79273 -1.78467,2.23135 v 0 c -0.83057,0.44109 -1.78768,0.26054 -2.661,0.23262 z"
           id="path1755"
           style="fill:#000000;fill-rule:evenodd;stroke:none;stroke-width:0.26458332" />
      </g>
      <g
         id="g1855">
        <g
           transform="translate(0.66509484)"
           id="g1780">
          <path
             style="fill:#000000;stroke-width:0.99999988"
             d="m 38.816635,228.78451 c -0.400281,-0.1233 -0.899822,-0.46475 -0.90062,-0.61563 -0.0013,-0.28548 0.62882,-0.79042 1.318239,-1.05592 1.82299,-0.60503 3.059651,-0.77574 5.534196,-0.8605 2.666842,-0.10908 4.923351,0.28203 6.615414,0.57288 1.398725,0.28418 2.405119,0.70427 3.462592,0.98509 0.919924,0.24349 1.479983,0.35385 1.996355,0.3934 1.664489,0.12749 2.633977,0.0266 3.244875,-0.33774 0.592658,-0.35344 0.38268,-0.68516 -0.62757,-0.99144 -0.656261,-0.19896 -1.352326,-0.28362 -2.381188,-0.28961 -0.913489,-0.005 -1.405931,0.0612 -1.405931,0.19006 0,0.12949 -0.438226,0.19524 -0.889639,0.13348 -1.020327,-0.29881 0.51366,-0.6705 1.606737,-0.70216 1.835328,-0.0365 3.540127,0.31291 4.341302,0.60847 1.390535,0.51799 1.318105,1.2118 -0.163526,1.56541 -3.745295,0.82172 -6.927019,0.0996 -9.643743,-0.56986 -3.439432,-1.02072 -9.944579,-1.20052 -11.814287,0.23173 -0.170706,0.13078 -0.154487,0.22862 0.0013,0.40105 0.330403,0.3658 0.215908,0.49847 -0.294509,0.34129 z"
             id="path870" />
          <path
             id="path1776"
             d="m 166.66167,228.78451 c 0.40028,-0.1233 0.89982,-0.46475 0.90062,-0.61563 0.001,-0.28548 -0.62882,-0.79042 -1.31824,-1.05592 -1.82301,-0.60503 -3.05967,-0.77574 -5.53423,-0.8605 -2.66686,-0.10908 -4.92338,0.28203 -6.61545,0.57288 -1.39874,0.28418 -2.40514,0.70427 -3.46262,0.98509 -0.91993,0.24349 -1.47999,0.35385 -1.99636,0.3934 -1.6645,0.12749 -2.63399,0.0266 -3.2449,-0.33774 -0.59266,-0.35344 -0.38268,-0.68516 0.62758,-0.99144 0.65626,-0.19896 1.35233,-0.28362 2.3812,-0.28961 0.9135,-0.005 1.40594,0.0612 1.40594,0.19006 0,0.12949 0.43823,0.19524 0.88964,0.13348 1.02034,-0.29881 -0.51366,-0.6705 -1.60674,-0.70216 -1.83534,-0.0365 -3.54015,0.31291 -4.34133,0.60847 -1.39054,0.51799 -1.31811,1.2118 0.16353,1.56541 3.74531,0.82172 6.92705,0.0996 9.6438,-0.56986 3.43945,-1.02072 9.94463,-1.20052 11.81435,0.23173 0.17071,0.13078 0.15449,0.22862 -0.001,0.40105 -0.33041,0.3658 -0.21591,0.49847 0.29451,0.34129 z"
             style="fill:#000000;stroke-width:0.99999988" />
        </g>
        <g
           transform="translate(1.0500449)"
           id="g1841">
          <g
             id="g1823"
             transform="translate(-5.291666,-17.386903)">
            <path
               id="path830-3"
               d="m 50.41328,242.16392 c 0.0937,-0.0259 0.69743,0.60849 0.32689,1.91764 -0.16505,0.57347 -0.44942,1.08869 -0.80839,1.65092 -0.14884,0.24042 -0.30421,0.47622 -0.44472,0.71114 -0.1326,0.2217 -0.24328,0.42924 -0.32494,0.63791 -0.18172,0.44867 -0.20993,0.90384 -0.11988,1.28014 0.16065,0.89902 0.79011,1.62527 0.6379,1.73768 0.007,-0.005 -0.92784,-0.18259 -1.4996,-1.44372 -0.22779,-0.55487 -0.27941,-1.25518 -0.031,-1.95377 0.1046,-0.28804 0.23803,-0.55836 0.38994,-0.81815 0.15997,-0.27355 0.33416,-0.52452 0.49377,-0.74836 0.39275,-0.56804 0.65776,-0.91271 0.87477,-1.36227 0.4157,-0.83603 0.32974,-1.56059 0.50522,-1.60916 z"
               style="fill:#000000;stroke:none;stroke-width:0.10999523px;stroke-linecap:butt;stroke-linejoin:miter;stroke-opacity:1" />
            <path
               style="fill:#000000;stroke:none;stroke-width:0.10999523px;stroke-linecap:butt;stroke-linejoin:miter;stroke-opacity:1"
               d="m 53.04381,242.16392 c 0.0937,-0.0259 0.69744,0.60849 0.3269,1.91764 -0.16506,0.57347 -0.44942,1.08869 -0.80839,1.65092 -0.14884,0.24042 -0.30421,0.47622 -0.44472,0.71114 -0.1326,0.2217 -0.24328,0.42924 -0.32494,0.63791 -0.18172,0.44867 -0.20993,0.90384 -0.11988,1.28014 0.16064,0.89902 0.79011,1.62527 0.6379,1.73768 0.007,-0.005 -0.92784,-0.18259 -1.4996,-1.44372 -0.2278,-0.55487 -0.27941,-1.25518 -0.031,-1.95377 0.1046,-0.28804 0.23803,-0.55836 0.38994,-0.81815 0.15997,-0.27355 0.33416,-0.52452 0.49377,-0.74836 0.39276,-0.56804 0.65776,-0.91271 0.87477,-1.36227 0.4157,-0.83603 0.32974,-1.56059 0.50522,-1.60916 z"
               id="path837" />
            <path
               id="path839-1"
               d="m 55.73553,242.16392 c 0.0937,-0.0259 0.69743,0.60849 0.3269,1.91764 -0.16506,0.57347 -0.44943,1.08869 -0.80839,1.65092 -0.14884,0.24042 -0.30422,0.47622 -0.44472,0.71114 -0.1326,0.2217 -0.24329,0.42924 -0.32494,0.63791 -0.18172,0.44867 -0.20994,0.90384 -0.11989,1.28014 0.16065,0.89902 0.79011,1.62527 0.63791,1.73768 0.007,-0.005 -0.92784,-0.18259 -1.4996,-1.44372 -0.2278,-0.55487 -0.27941,-1.25518 -0.031,-1.95377 0.1046,-0.28804 0.23802,-0.55836 0.38994,-0.81815 0.15997,-0.27355 0.33416,-0.52452 0.49376,-0.74836 0.39276,-0.56804 0.65776,-0.91271 0.87478,-1.36227 0.41569,-0.83603 0.32974,-1.56059 0.50521,-1.60916 z"
               style="fill:#000000;stroke:none;stroke-width:0.10999523px;stroke-linecap:butt;stroke-linejoin:miter;stroke-opacity:1" />
          </g>
          <g
             transform="matrix(-1,0,0,1,210.00007,-17.386903)"
             id="g1831">
            <path
               style="fill:#000000;stroke:none;stroke-width:0.10999523px;stroke-linecap:butt;stroke-linejoin:miter;stroke-opacity:1"
               d="m 50.41328,242.16392 c 0.0937,-0.0259 0.69743,0.60849 0.32689,1.91764 -0.16505,0.57347 -0.44942,1.08869 -0.80839,1.65092 -0.14884,0.24042 -0.30421,0.47622 -0.44472,0.71114 -0.1326,0.2217 -0.24328,0.42924 -0.32494,0.63791 -0.18172,0.44867 -0.20993,0.90384 -0.11988,1.28014 0.16065,0.89902 0.79011,1.62527 0.6379,1.73768 0.007,-0.005 -0.92784,-0.18259 -1.4996,-1.44372 -0.22779,-0.55487 -0.27941,-1.25518 -0.031,-1.95377 0.1046,-0.28804 0.23803,-0.55836 0.38994,-0.81815 0.15997,-0.27355 0.33416,-0.52452 0.49377,-0.74836 0.39275,-0.56804 0.65776,-0.91271 0.87477,-1.36227 0.4157,-0.83603 0.32974,-1.56059 0.50522,-1.60916 z"
               id="path1825" />
            <path
               id="path1827"
               d="m 53.04381,242.16392 c 0.0937,-0.0259 0.69744,0.60849 0.3269,1.91764 -0.16506,0.57347 -0.44942,1.08869 -0.80839,1.65092 -0.14884,0.24042 -0.30421,0.47622 -0.44472,0.71114 -0.1326,0.2217 -0.24328,0.42924 -0.32494,0.63791 -0.18172,0.44867 -0.20993,0.90384 -0.11988,1.28014 0.16064,0.89902 0.79011,1.62527 0.6379,1.73768 0.007,-0.005 -0.92784,-0.18259 -1.4996,-1.44372 -0.2278,-0.55487 -0.27941,-1.25518 -0.031,-1.95377 0.1046,-0.28804 0.23803,-0.55836 0.38994,-0.81815 0.15997,-0.27355 0.33416,-0.52452 0.49377,-0.74836 0.39276,-0.56804 0.65776,-0.91271 0.87477,-1.36227 0.4157,-0.83603 0.32974,-1.56059 0.50522,-1.60916 z"
               style="fill:#000000;stroke:none;stroke-width:0.10999523px;stroke-linecap:butt;stroke-linejoin:miter;stroke-opacity:1" />
            <path
               style="fill:#000000;stroke:none;stroke-width:0.10999523px;stroke-linecap:butt;stroke-linejoin:miter;stroke-opacity:1"
               d="m 55.73553,242.16392 c 0.0937,-0.0259 0.69743,0.60849 0.3269,1.91764 -0.16506,0.57347 -0.44943,1.08869 -0.80839,1.65092 -0.14884,0.24042 -0.30422,0.47622 -0.44472,0.71114 -0.1326,0.2217 -0.24329,0.42924 -0.32494,0.63791 -0.18172,0.44867 -0.20994,0.90384 -0.11989,1.28014 0.16065,0.89902 0.79011,1.62527 0.63791,1.73768 0.007,-0.005 -0.92784,-0.18259 -1.4996,-1.44372 -0.2278,-0.55487 -0.27941,-1.25518 -0.031,-1.95377 0.1046,-0.28804 0.23802,-0.55836 0.38994,-0.81815 0.15997,-0.27355 0.33416,-0.52452 0.49376,-0.74836 0.39276,-0.56804 0.65776,-0.91271 0.87478,-1.36227 0.41569,-0.83603 0.32974,-1.56059 0.50521,-1.60916 z"
               id="path1829" />
          </g>
        </g>
      </g>
      <g
         id="g1891"
         transform="translate(-0.01207732)">
        <path
           d="m 75.692832,224.98449 c -0.479328,-0.51955 -1.285563,-0.55202 -1.805113,-0.0727 -0.519559,0.47934 -0.552022,1.28556 -0.07274,1.80512 0.479328,0.51956 1.289764,0.55659 1.809319,0.0773 0.51956,-0.47932 0.54782,-1.2901 0.06851,-1.80968 z m -3.18047,-0.24659 c -0.359498,-0.38966 -0.968553,-0.41418 -1.358223,-0.0546 -0.389659,0.3595 -0.414176,0.96856 -0.0547,1.35822 0.359497,0.38967 0.964361,0.40961 1.354006,0.0501 0.389679,-0.3595 0.418378,-0.96401 0.05891,-1.35366 z m -2.598198,0.76865 c -0.269616,-0.29225 -0.724227,-0.31054 -1.016475,-0.041 -0.292249,0.26962 -0.310531,0.72423 -0.04097,1.01648 0.269627,0.29224 0.724233,0.31054 1.016477,0.041 0.292247,-0.26961 0.310541,-0.72423 0.04097,-1.01647 z m -1.496082,1.62491 c -0.202219,-0.21919 -0.54315,-0.23295 -0.762362,-0.0307 -0.219183,0.20222 -0.232889,0.54319 -0.03073,0.76236 0.202214,0.21919 0.543181,0.23288 0.762353,0.0307 0.219192,-0.20222 0.232957,-0.54315 0.03073,-0.76236 z"
           id="path1773"
           style="fill:#000000;fill-opacity:1;fill-rule:evenodd;stroke:none;stroke-width:0.26458332" />
        <path
           style="fill:#000000;fill-opacity:1;fill-rule:evenodd;stroke:none;stroke-width:0.26458332"
           id="path1887"
           d="m 131.13978,224.98449 c 0.47933,-0.51955 1.28556,-0.55202 1.80512,-0.0727 0.51956,0.47934 0.55202,1.28556 0.0727,1.80512 -0.47933,0.51956 -1.28977,0.55659 -1.80933,0.0773 -0.51956,-0.47932 -0.54782,-1.2901 -0.0685,-1.80968 z m 3.18048,-0.24659 c 0.3595,-0.38966 0.96856,-0.41418 1.35823,-0.0546 0.38966,0.3595 0.41418,0.96856 0.0547,1.35822 -0.35949,0.38967 -0.96436,0.40961 -1.35401,0.0501 -0.38968,-0.3595 -0.41838,-0.96401 -0.0589,-1.35366 z m 2.59822,0.76865 c 0.26961,-0.29225 0.72423,-0.31054 1.01648,-0.041 0.29225,0.26962 0.31053,0.72423 0.041,1.01648 -0.26963,0.29224 -0.72424,0.31054 -1.01649,0.041 -0.29225,-0.26961 -0.31054,-0.72423 -0.041,-1.01647 z m 1.49608,1.62491 c 0.20223,-0.21919 0.54316,-0.23295 0.76237,-0.0307 0.21919,0.20222 0.23289,0.54319 0.0307,0.76236 -0.20221,0.21919 -0.54318,0.23288 -0.76236,0.0307 -0.21919,-0.20222 -0.23295,-0.54315 -0.0307,-0.76236 z" />
      </g>
      <g
         id="g1903"
         transform="translate(-0.21914035,-0.52916667)">
        <path
           d="m 94.602957,238.6694 c 0.386827,0.59166 1.176599,0.75697 1.768262,0.37007 0.591658,-0.38681 0.756979,-1.17659 0.370207,-1.76824 -0.386829,-0.59166 -1.179987,-0.76218 -1.771643,-0.37535 -0.591661,0.38683 -0.753587,1.18178 -0.366778,1.77344 z m 3.095924,0.76905 c 0.290126,0.44373 0.886745,0.56861 1.330477,0.27857 0.443734,-0.29012 0.568615,-0.88674 0.278515,-1.33047 -0.290119,-0.44376 -0.883364,-0.56343 -1.327086,-0.2733 -0.443754,0.29012 -0.572007,0.88157 -0.281917,1.32529 z m 2.689529,-0.32849 c 0.21759,0.33281 0.66292,0.42601 0.99571,0.20847 0.33281,-0.21759 0.42601,-0.66292 0.20847,-0.99571 -0.21759,-0.33282 -0.66291,-0.42602 -0.99571,-0.20847 -0.3328,0.21757 -0.42601,0.66291 -0.20847,0.9957 z m 1.74416,-1.35519 c 0.16319,0.24961 0.49715,0.31956 0.74678,0.15636 0.2496,-0.1632 0.31949,-0.4972 0.15635,-0.74678 -0.16318,-0.24961 -0.49719,-0.31949 -0.74677,-0.15635 -0.24961,0.16319 -0.31956,0.49715 -0.15636,0.74677 z"
           id="path1773-9"
           style="fill:#000000;fill-opacity:1;fill-rule:evenodd;stroke:none;stroke-width:0.26458332" />
        <path
           style="fill:#000000;fill-opacity:1;fill-rule:evenodd;stroke:none;stroke-width:0.26458332"
           id="path1899"
           d="m 112.64382,238.6694 c -0.38683,0.59166 -1.1766,0.75697 -1.76826,0.37007 -0.59166,-0.38681 -0.75698,-1.17659 -0.37021,-1.76824 0.38683,-0.59166 1.17999,-0.76218 1.77164,-0.37535 0.59166,0.38683 0.75359,1.18178 0.36678,1.77344 z m -3.09593,0.76905 c -0.29012,0.44373 -0.88675,0.56861 -1.33048,0.27857 -0.44374,-0.29012 -0.56862,-0.88674 -0.27852,-1.33047 0.29012,-0.44376 0.88337,-0.56343 1.3271,-0.2733 0.44375,0.29012 0.57201,0.88157 0.28191,1.32529 z m -2.68954,-0.32849 c -0.21759,0.33281 -0.66292,0.42601 -0.99572,0.20847 -0.33281,-0.21759 -0.42601,-0.66292 -0.20847,-0.99571 0.21759,-0.33282 0.66292,-0.42602 0.99572,-0.20847 0.3328,0.21757 0.42601,0.66291 0.20847,0.9957 z m -1.74417,-1.35519 c -0.16319,0.24961 -0.49715,0.31956 -0.74679,0.15636 -0.2496,-0.1632 -0.31949,-0.4972 -0.15635,-0.74678 0.16318,-0.24961 0.4972,-0.31949 0.74678,-0.15635 0.24961,0.16319 0.31956,0.49715 0.15636,0.74677 z" />
      </g>
      <g
         id="g1982"
         transform="matrix(0.91962613,0,0,0.91962613,7.7830213,28.677903)"
         style="stroke-width:1.08739841">
        <path
           id="path1927"
           d="m 103.97872,215.09011 0.4961,0.79229 c 0.27313,0.43656 0.80963,0.79298 1.19475,0.79298 0.38452,0 0.69918,0.16574 0.69918,0.36821 0,0.20245 0.23912,0.3682 0.53123,0.3682 0.29212,0 0.53123,0.16575 0.53123,0.3682 0,0.20247 -0.23911,0.36821 -0.53123,0.36821 -0.29211,0 -0.53123,0.16572 -0.53123,0.3682 0,0.20247 -0.33201,0.3682 -0.73794,0.3682 -0.43341,0 -0.89607,0.30406 -1.12086,0.73641 -0.21053,0.40492 -0.44963,0.73568 -0.53123,0.73568 -0.0816,0 -0.32069,-0.33076 -0.53123,-0.73568 -0.22479,-0.43235 -0.68745,-0.73641 -1.12086,-0.73641 -0.40592,0 -0.73793,-0.16573 -0.73793,-0.3682 0,-0.20248 -0.23913,-0.3682 -0.53123,-0.3682 -0.29212,0 -0.53124,-0.16574 -0.53124,-0.36821 0,-0.20245 0.23912,-0.3682 0.53124,-0.3682 0.2921,0 0.53123,-0.16575 0.53123,-0.3682 0,-0.20247 0.31466,-0.36821 0.69918,-0.36821 0.38512,0 0.92161,-0.35642 1.19475,-0.79298 z"
           style="fill:#ffffff;stroke-width:0.28770748" />
        <path
           id="path1923"
           d="m 103.97872,215.9397 c -0.14606,0 -0.26561,0.33076 -0.26561,0.73569 0,0.61353 -0.17727,0.73641 -1.06247,0.73641 -0.58422,0 -1.06194,0.16575 -1.06194,0.3682 0,0.20247 0.47772,0.36821 1.06194,0.36821 0.8852,0 1.06247,0.12275 1.06247,0.73639 0,0.40493 0.11955,0.73641 0.26561,0.73641 0.14606,0 0.26562,-0.33148 0.26562,-0.73641 0,-0.61359 0.17726,-0.73639 1.06246,-0.73639 0.58423,0 1.06195,-0.16574 1.06195,-0.36821 0,-0.20245 -0.47772,-0.3682 -1.06195,-0.3682 -0.8852,0 -1.06246,-0.12288 -1.06246,-0.73641 0,-0.40493 -0.11956,-0.73569 -0.26562,-0.73569 z"
           style="fill:#000000;stroke-width:0.28770748" />
      </g>
      <g
         id="g2133"
         transform="translate(-0.01123807)">
        <g
           id="g2115">
          <path
             style="fill:#ffffff;stroke-width:0.26458332"
             d="m 32.612152,227.11733 c 0.147099,-0.007 0.243938,0.37968 0.522329,0.75772 0.311666,0.42322 0.94604,1.01443 1.409325,1.31359 0.463286,0.29916 0.987309,0.45109 0.981295,0.604 -0.01437,0.36536 -0.716123,0.41267 -1.343638,0.006 -0.627519,-0.40716 -1.330759,-1.05078 -1.64802,-1.63131 -0.284996,-0.52148 -0.110452,-1.04011 0.07871,-1.04953 z"
             id="path2037" />
          <path
             style="fill:#ffffff;stroke-width:0.26458332"
             d="m 25.000473,226.94142 c 0.177817,-0.0384 0.745224,0.24775 1.368502,0.70224 0.712317,0.51941 1.487296,0.94509 1.72203,0.94509 0.234734,0 0.490924,0.14479 0.569795,0.3217 0.07887,0.17687 0.398266,0.32169 0.709762,0.32169 0.311497,0 0.566635,0.14482 0.566635,0.32172 0,0.17689 -0.307368,0.32169 -0.682671,0.32169 -0.375304,0 -0.746928,-0.1448 -0.825798,-0.32169 -0.07887,-0.1769 -0.32838,-0.32172 -0.554444,-0.32172 -0.226065,0 -0.872255,-0.32797 -1.436229,-0.7279 -1.451365,-1.02918 -1.628918,-1.21056 -1.488603,-1.52527 0.0086,-0.0191 0.02562,-0.0321 0.05102,-0.0376 z"
             id="path2033" />
          <path
             style="fill:#ffffff;stroke-width:0.26458332"
             d="m 30.955787,228.3998 c 0.34536,0.0242 0.776596,0.23306 0.907435,0.52651 0.220016,0.4935 -0.234674,0.65199 -0.888831,0.30946 -0.338006,-0.17697 -0.547117,-0.47386 -0.464569,-0.65903 0.06229,-0.13971 0.238753,-0.19151 0.445965,-0.17694 z"
             id="path2029" />
        </g>
        <g
           transform="matrix(-1,0,0,1,206.83097,0)"
           id="g2123">
          <path
             id="path2117"
             d="m 32.612152,227.11733 c 0.147099,-0.007 0.243938,0.37968 0.522329,0.75772 0.311666,0.42322 0.94604,1.01443 1.409325,1.31359 0.463286,0.29916 0.987309,0.45109 0.981295,0.604 -0.01437,0.36536 -0.716123,0.41267 -1.343638,0.006 -0.627519,-0.40716 -1.330759,-1.05078 -1.64802,-1.63131 -0.284996,-0.52148 -0.110452,-1.04011 0.07871,-1.04953 z"
             style="fill:#ffffff;stroke-width:0.26458332" />
          <path
             id="path2119"
             d="m 25.000473,226.94142 c 0.177817,-0.0384 0.745224,0.24775 1.368502,0.70224 0.712317,0.51941 1.487296,0.94509 1.72203,0.94509 0.234734,0 0.490924,0.14479 0.569795,0.3217 0.07887,0.17687 0.398266,0.32169 0.709762,0.32169 0.311497,0 0.566635,0.14482 0.566635,0.32172 0,0.17689 -0.307368,0.32169 -0.682671,0.32169 -0.375304,0 -0.746928,-0.1448 -0.825798,-0.32169 -0.07887,-0.1769 -0.32838,-0.32172 -0.554444,-0.32172 -0.226065,0 -0.872255,-0.32797 -1.436229,-0.7279 -1.451365,-1.02918 -1.628918,-1.21056 -1.488603,-1.52527 0.0086,-0.0191 0.02562,-0.0321 0.05102,-0.0376 z"
             style="fill:#ffffff;stroke-width:0.26458332" />
          <path
             id="path2121"
             d="m 30.955787,228.3998 c 0.34536,0.0242 0.776596,0.23306 0.907435,0.52651 0.220016,0.4935 -0.234674,0.65199 -0.888831,0.30946 -0.338006,-0.17697 -0.547117,-0.47386 -0.464569,-0.65903 0.06229,-0.13971 0.238753,-0.19151 0.445965,-0.17694 z"
             style="fill:#ffffff;stroke-width:0.26458332" />
        </g>
      </g>
    </g>
  </g>
</svg>
